<svg xmlns="http://www.w3.org/2000/svg" width="268" height="42" viewBox="0 0 268 42" class="bn-svg" style="width: 268px; height: 42px;"><path d="M0.517625 40.5V1.412H11.0456L19.9496 18.436H20.1736L29.1896 1.412H40.2216V40.5H30.1416V18.884H29.7496L25.3816 26.948L20.2856 35.796L14.5736 25.66L10.9336 18.66H10.5976V40.5H0.517625ZM64.0649 41.172C53.5369 41.172 46.4809 34.34 46.4809 20.956C46.4809 7.572 53.5369 0.739998 64.0649 0.739998C74.5929 0.739998 81.5929 7.572 81.5929 20.956C81.5929 34.34 74.5929 41.172 64.0649 41.172ZM64.0649 31.596C68.1529 31.596 70.2249 28.964 70.2249 23.644V18.268C70.2249 12.948 68.1529 10.316 64.0649 10.316C59.9769 10.316 57.9049 12.948 57.9049 18.268V23.644C57.9049 28.964 59.9769 31.596 64.0649 31.596ZM104.26 41.172C93.7323 41.172 86.6763 34.34 86.6763 20.956C86.6763 7.572 93.7323 0.739998 104.26 0.739998C114.788 0.739998 121.788 7.572 121.788 20.956C121.788 34.34 114.788 41.172 104.26 41.172ZM104.26 31.596C108.348 31.596 110.42 28.964 110.42 23.644V18.268C110.42 12.948 108.348 10.316 104.26 10.316C100.172 10.316 98.1003 12.948 98.1003 18.268V23.644C98.1003 28.964 100.172 31.596 104.26 31.596ZM128.104 40.5V1.412H139.752L148.264 16.644L151.456 23.98H151.624V1.412H161.704V40.5H150.056L141.544 25.268L138.352 17.932H138.184V40.5H128.104ZM169.229 40.5V1.412H190.005C196.445 1.412 200.197 5.388 200.197 11.38C200.197 17.484 197.173 19.836 192.357 19.892V20.228C196.613 20.116 201.821 22.58 201.821 29.468C201.821 35.46 197.509 40.5 191.741 40.5H169.229ZM188.773 31.54C189.949 31.54 190.677 30.756 190.677 29.524V27.06C190.677 25.828 189.949 25.044 188.773 25.044H180.037V31.54H188.773ZM187.093 16.868C188.437 16.868 189.277 15.916 189.277 14.404V12.892C189.277 11.38 188.437 10.372 187.093 10.372H180.037V16.868H187.093ZM205.73 40.5V31.988H210.49V9.924H205.73V1.412H226.058V9.924H221.298V31.988H226.058V40.5H205.73ZM229.147 40.5L241.579 20.06L229.931 1.412H242.419L248.691 13.228H248.915L255.243 1.412H266.723L255.019 20.452L267.619 40.5H255.243L247.851 27.34H247.627L240.627 40.5H229.147Z" fill="#FCD535"></path></svg>